<?xml version="1.0" encoding="UTF-8"?><svg xmlns="http://www.w3.org/2000/svg" viewBox="0 0 125.62 66.15"><defs><style>.d{fill:#478fcd;}.e{stroke-width:8px;}.e,.f{fill:none;stroke:#478fcd;stroke-miterlimit:10;}.f{stroke-width:5px;}</style></defs><g id="a"/><g id="b"><g id="c"><path class="e" d="M0,50.15c7.85,0,7.85,12,15.7,12s7.85-12,15.7-12,7.85,12,15.7,12,7.85-12,15.7-12,7.85,12,15.7,12,7.85-12,15.7-12,7.85,12,15.71,12,7.85-12,15.71-12"/><path class="e" d="M0,32.17c7.85,0,7.85,12,15.7,12s7.85-12,15.7-12,7.85,12,15.7,12,7.85-12,15.7-12,7.85,12,15.7,12,7.85-12,15.7-12,7.85,12,15.71,12,7.85-12,15.71-12"/><g><path class="f" d="M62.79,26.21c-.13-6.83-.27-13.67-.4-20.5"/><polygon class="d" points="71.06 15.51 62.42 7.19 54.11 15.84 53.97 8.64 62.28 0 70.92 8.31 71.06 15.51"/></g></g></g></svg>