<?xml version="1.0" encoding="UTF-8"?><svg xmlns="http://www.w3.org/2000/svg" viewBox="0 0 125.62 55.74"><defs><style>.d{fill:none;stroke:#478fcd;stroke-miterlimit:10;stroke-width:8px;}</style></defs><g id="a"/><g id="b"><g id="c"><path class="d" d="M0,39.74c7.85,0,7.85,12,15.7,12s7.85-12,15.7-12,7.85,12,15.7,12,7.85-12,15.7-12,7.85,12,15.7,12,7.85-12,15.7-12,7.85,12,15.71,12,7.85-12,15.71-12"/><path class="d" d="M0,21.77c7.85,0,7.85,12,15.7,12s7.85-12,15.7-12,7.85,12,15.7,12,7.85-12,15.7-12,7.85,12,15.7,12,7.85-12,15.7-12,7.85,12,15.71,12,7.85-12,15.71-12"/><path class="d" d="M0,4c7.85,0,7.85,12,15.7,12s7.85-12,15.7-12,7.85,12,15.7,12,7.85-12,15.7-12,7.85,12,15.7,12,7.85-12,15.7-12,7.85,12,15.71,12,7.85-12,15.71-12"/></g></g></svg>