<?xml version="1.0" encoding="UTF-8"?><svg xmlns="http://www.w3.org/2000/svg" viewBox="0 0 125.62 66.2"><defs><style>.d{fill:#478fcd;}.e{stroke-width:8px;}.e,.f{fill:none;stroke:#478fcd;stroke-miterlimit:10;}.f{stroke-width:5px;}</style></defs><g id="a"/><g id="b"><g id="c"><path class="e" d="M0,50.2c7.85,0,7.85,12,15.7,12s7.85-12,15.7-12,7.85,12,15.7,12,7.85-12,15.7-12,7.85,12,15.7,12,7.85-12,15.7-12,7.85,12,15.71,12,7.85-12,15.71-12"/><path class="e" d="M0,32.22c7.85,0,7.85,12,15.7,12s7.85-12,15.7-12,7.85,12,15.7,12,7.85-12,15.7-12,7.85,12,15.7,12,7.85-12,15.7-12,7.85,12,15.71,12,7.85-12,15.71-12"/><g><path class="f" d="M62.68,20.55c-.13-6.83-.27-13.67-.4-20.5"/><polygon class="d" points="70.96 10.43 62.65 19.07 54.01 10.76 54.15 17.95 62.79 26.26 71.1 17.62 70.96 10.43"/></g></g></g></svg>